<svg width="74" height="75" viewBox="0 0 74 75" fill="none" xmlns="http://www.w3.org/2000/svg">
<g clip-path="url(#clip0_0_1571)">
<path d="M0 37.7305C0 58.165 16.5655 74.7305 37 74.7305C57.4345 74.7305 74 58.165 74 37.7305C74 17.2959 57.4345 0.730469 37 0.730469C16.5655 0.730469 0 17.2959 0 37.7305Z" fill="#EFEFEF"/>
<path d="M36.9997 22.0054C42.0872 22.0054 42.7809 22.0054 44.8622 22.0054C46.7122 22.0054 47.6372 22.4679 48.3309 22.6991C49.2559 23.1616 49.9497 23.3929 50.6434 24.0866C51.3372 24.7804 51.7997 25.4741 52.0309 26.3991C52.2622 27.0929 52.4934 28.0179 52.7247 29.8679C52.7247 31.9491 52.7247 32.4116 52.7247 37.7304C52.7247 43.0491 52.7247 43.5116 52.7247 45.5929C52.7247 47.4429 52.2622 48.3679 52.0309 49.0616C51.5684 49.9866 51.3372 50.6804 50.6434 51.3741C49.9497 52.0679 49.2559 52.5304 48.3309 52.7616C47.6372 52.9929 46.7122 53.2241 44.8622 53.4554C42.7809 53.4554 42.3184 53.4554 36.9997 53.4554C31.6809 53.4554 31.2184 53.4554 29.1372 53.4554C27.2872 53.4554 26.3622 52.9929 25.6684 52.7616C24.7434 52.2991 24.0497 52.0679 23.3559 51.3741C22.6622 50.6804 22.1997 49.9866 21.9684 49.0616C21.7372 48.3679 21.5059 47.4429 21.2747 45.5929C21.2747 43.5116 21.2747 43.0491 21.2747 37.7304C21.2747 32.4116 21.2747 31.9491 21.2747 29.8679C21.2747 28.0179 21.7372 27.0929 21.9684 26.3991C22.4309 25.4741 22.6622 24.7804 23.3559 24.0866C24.0497 23.3929 24.7434 22.9304 25.6684 22.6991C26.3622 22.4679 27.2872 22.2366 29.1372 22.0054C31.2184 22.0054 31.9122 22.0054 36.9997 22.0054ZM36.9997 18.5366C31.6809 18.5366 31.2184 18.5366 29.1372 18.5366C27.0559 18.5366 25.6684 18.9991 24.5122 19.4616C23.3559 19.9241 22.1997 20.6179 21.0434 21.7741C19.8872 22.9304 19.4247 23.8554 18.7309 25.2429C18.2684 26.3991 18.0372 27.7866 17.8059 29.8679C17.8059 31.9491 17.8059 32.6429 17.8059 37.7304C17.8059 43.0491 17.8059 43.5116 17.8059 45.5929C17.8059 47.6741 18.2684 49.0616 18.7309 50.2179C19.1934 51.3741 19.8872 52.5304 21.0434 53.6866C22.1997 54.8429 23.1247 55.3054 24.5122 55.9991C25.6684 56.4616 27.0559 56.6929 29.1372 56.9241C31.2184 56.9241 31.9122 56.9241 36.9997 56.9241C42.0872 56.9241 42.7809 56.9241 44.8622 56.9241C46.9434 56.9241 48.3309 56.4616 49.4872 55.9991C50.6434 55.5366 51.7997 54.8429 52.9559 53.6866C54.1122 52.5304 54.5747 51.6054 55.2684 50.2179C55.7309 49.0616 55.9622 47.6741 56.1934 45.5929C56.1934 43.5116 56.1934 42.8179 56.1934 37.7304C56.1934 32.6429 56.1934 31.9491 56.1934 29.8679C56.1934 27.7866 55.7309 26.3991 55.2684 25.2429C54.8059 24.0866 54.1122 22.9304 52.9559 21.7741C51.7997 20.6179 50.8747 20.1554 49.4872 19.4616C48.3309 18.9991 46.9434 18.7679 44.8622 18.5366C42.7809 18.5366 42.3184 18.5366 36.9997 18.5366Z" fill="#101010"/>
<path d="M36.9997 27.7866C31.4497 27.7866 27.0559 32.1804 27.0559 37.7304C27.0559 43.2804 31.4497 47.6741 36.9997 47.6741C42.5497 47.6741 46.9434 43.2804 46.9434 37.7304C46.9434 32.1804 42.5497 27.7866 36.9997 27.7866ZM36.9997 44.2054C33.5309 44.2054 30.5247 41.4304 30.5247 37.7304C30.5247 34.2616 33.2997 31.2554 36.9997 31.2554C40.4684 31.2554 43.4747 34.0304 43.4747 37.7304C43.4747 41.1991 40.4684 44.2054 36.9997 44.2054Z" fill="#101010"/>
<path d="M47.1742 29.8668C48.4511 29.8668 49.4863 28.8317 49.4863 27.5547C49.4863 26.2778 48.4511 25.2427 47.1742 25.2427C45.8974 25.2427 44.8622 26.2778 44.8622 27.5547C44.8622 28.8317 45.8974 29.8668 47.1742 29.8668Z" fill="#101010"/>
</g>
<defs>
<clipPath id="clip0_0_1571">
<rect width="74" height="74" fill="white" transform="translate(0 0.730469)"/>
</clipPath>
</defs>
</svg>
