<svg width="50" height="24" viewBox="0 0 50 24" fill="none" xmlns="http://www.w3.org/2000/svg">
<path d="M15.303 23L7.74297 12.77H4.71297L13.893 1.1H19.533L11.283 11.57L11.223 9.44L21.243 23H15.303ZM0.90297 23V1.1H5.82297V23H0.90297ZM44.5591 23V1.1H49.4791V23H44.5591Z" fill="white"/>
<path d="M26.5816 23.12V18.53H30.6616C31.6816 18.53 32.6016 18.38 33.4216 18.08C34.2416 17.76 34.9416 17.32 35.5216 16.76C36.1016 16.18 36.5416 15.49 36.8416 14.69C37.1416 13.87 37.2916 12.97 37.2916 11.99C37.2916 10.97 37.1416 10.06 36.8416 9.26C36.5416 8.46 36.1016 7.78 35.5216 7.22C34.9416 6.66 34.2416 6.24 33.4216 5.96C32.6016 5.66 31.6816 5.51 30.6616 5.51H26.5816V0.919998H30.3916C32.3716 0.919998 34.1016 1.21 35.5816 1.79C37.0616 2.37 38.3016 3.16 39.3016 4.16C40.3016 5.16 41.0416 6.31 41.5216 7.61C42.0216 8.89 42.2716 10.24 42.2716 11.66V12.32C42.2716 13.64 42.0216 14.95 41.5216 16.25C41.0416 17.53 40.3016 18.69 39.3016 19.73C38.3016 20.75 37.0616 21.57 35.5816 22.19C34.1016 22.81 32.3716 23.12 30.3916 23.12H26.5816ZM22.2616 23.12V0.919998H27.1816V23.12H22.2616Z" fill="#E10000"/>
</svg>
