<svg width="74" height="75" viewBox="0 0 74 75" fill="none" xmlns="http://www.w3.org/2000/svg">
<g clip-path="url(#clip0_0_1579)">
<path d="M0 37.7305C0 58.165 16.5655 74.7305 37 74.7305C57.4345 74.7305 74 58.165 74 37.7305C74 17.2959 57.4345 0.730469 37 0.730469C16.5655 0.730469 0 17.2959 0 37.7305Z" fill="#EFEFEF"/>
<path d="M18.7311 37.0558C28.6632 32.7287 35.286 29.8759 38.5999 28.4975C48.0614 24.5621 50.0274 23.8785 51.3088 23.8557C51.5909 23.851 52.2209 23.9208 52.6291 24.252C52.9738 24.5317 53.0688 24.9095 53.1141 25.1747C53.1594 25.4399 53.2159 26.0439 53.1712 26.5159C52.6584 31.9033 50.4396 44.9766 49.3111 51.0104C48.8335 53.5637 47.8931 54.4196 46.9826 54.5035C45.0043 54.6854 43.5018 53.1959 41.5855 51.9397C38.587 49.9741 36.893 48.7506 33.9823 46.8325C30.6185 44.6159 32.799 43.3973 34.7162 41.4064C35.2178 40.8853 43.935 32.9562 44.1037 32.2369C44.125 32.1469 44.1444 31.8117 43.9452 31.6347C43.746 31.4575 43.4522 31.518 43.24 31.5663C42.9391 31.6344 38.1488 34.8007 28.869 41.0648C27.5093 41.9984 26.2777 42.4535 25.1742 42.4295C23.9578 42.4033 21.6178 41.7419 19.8782 41.1764C17.7446 40.4827 16.0488 40.116 16.1965 38.9382C16.2734 38.3246 17.1182 37.6972 18.7311 37.0558Z" fill="#101010"/>
</g>
<defs>
<clipPath id="clip0_0_1579">
<rect width="74" height="74" fill="white" transform="translate(0 0.730469)"/>
</clipPath>
</defs>
</svg>
