<svg width="74" height="75" viewBox="0 0 74 75" fill="none" xmlns="http://www.w3.org/2000/svg">
<g clip-path="url(#clip0_0_1576)">
<path d="M0 37.7305C0 58.165 16.5655 74.7305 37 74.7305C57.4345 74.7305 74 58.165 74 37.7305C74 17.2959 57.4345 0.730469 37 0.730469C16.5655 0.730469 0 17.2959 0 37.7305Z" fill="#EFEFEF"/>
<path fill-rule="evenodd" clip-rule="evenodd" d="M49.95 24.5492C46.4813 21.0805 41.8562 19.2305 37 19.2305C26.825 19.2305 18.5 27.5555 18.5 37.7305C18.5 40.968 19.425 44.2055 21.0437 46.9805L18.5 56.2305L28.2125 53.6867C30.9875 55.0742 33.9937 55.9992 37 55.9992C47.175 55.9992 55.5 47.6742 55.5 37.4992C55.5 32.643 53.4188 28.018 49.95 24.5492ZM37 52.993C34.225 52.993 31.45 52.2992 29.1375 50.9117L28.675 50.6805L22.8938 52.2992L24.5125 46.7492L24.05 46.0555C22.4313 43.5117 21.7375 40.7367 21.7375 37.9617C21.7375 29.6367 28.675 22.6992 37 22.6992C41.1625 22.6992 44.8625 24.318 47.8687 27.093C50.875 30.0992 52.2625 33.7992 52.2625 37.9617C52.2625 46.0555 45.5562 52.993 37 52.993ZM45.325 41.4305C44.8625 41.1992 42.55 40.043 42.0875 40.043C41.625 39.8117 41.3938 39.8117 41.1625 40.2742C40.9313 40.7367 40.0062 41.6617 39.775 42.1242C39.5437 42.3555 39.3125 42.3555 38.85 42.3555C38.3875 42.1242 37 41.6617 35.15 40.043C33.7625 38.8867 32.8375 37.268 32.6062 36.8055C32.375 36.343 32.6062 36.1117 32.8375 35.8805C33.0687 35.6492 33.3 35.418 33.5312 35.1867C33.7625 34.9555 33.7625 34.7242 33.9937 34.493C34.225 34.2617 33.9937 34.0305 33.9937 33.7992C33.9937 33.568 33.0687 31.2555 32.6062 30.3305C32.375 29.6367 31.9125 29.6367 31.6812 29.6367C31.45 29.6367 31.2187 29.6367 30.7562 29.6367C30.525 29.6367 30.0625 29.6367 29.6 30.0992C29.1375 30.5617 27.9812 31.718 27.9812 34.0305C27.9812 36.343 29.6 38.4242 29.8313 38.8867C30.0625 39.118 33.0688 43.9742 37.6938 45.8242C41.625 47.443 42.3187 46.9805 43.2437 46.9805C44.1687 46.9805 46.0187 45.8242 46.25 44.8992C46.7125 43.743 46.7125 42.818 46.4812 42.818C46.25 41.6617 45.7875 41.6617 45.325 41.4305Z" fill="#101010"/>
</g>
<defs>
<clipPath id="clip0_0_1576">
<rect width="74" height="74" fill="white" transform="translate(0 0.730469)"/>
</clipPath>
</defs>
</svg>
